<svg xmlns="http://www.w3.org/2000/svg" xmlns:xlink="http://www.w3.org/1999/xlink" width="2000" zoomAndPan="magnify" viewBox="0 0 1500 1499.999933" height="2000" preserveAspectRatio="xMidYMid meet" version="1.0"><defs><g/><clipPath id="051cbfdae1"><rect x="0" width="396" y="0" height="373"/></clipPath><clipPath id="0b13608b4c"><rect x="0" width="298" y="0" height="244"/></clipPath><clipPath id="ead45edea5"><rect x="0" width="131" y="0" height="432"/></clipPath><clipPath id="6b2ba8db14"><rect x="0" width="53" y="0" height="314"/></clipPath><clipPath id="ee3e29cbd3"><rect x="0" width="58" y="0" height="345"/></clipPath><clipPath id="cbcdc37939"><rect x="0" width="221" y="0" height="38"/></clipPath></defs><rect x="-150" width="1800" fill="#ffffff" y="-149.999993" height="1799.99992" fill-opacity="1"/><rect x="-150" width="1800" fill="#ffffff" y="-149.999993" height="1799.99992" fill-opacity="1"/><g transform="matrix(1, 0, 0, 1, 527, 397)"><g clip-path="url(#051cbfdae1)"><g fill="#0d005c" fill-opacity="1"><g transform="translate(2.366362, 260.089978)"><g><path d="M 105.34375 -125.890625 L 66.328125 0 L 41.890625 0 L 2.671875 -125.890625 L 23.609375 -125.890625 L 58.109375 -9.453125 L 92.609375 -125.890625 Z M 105.34375 -125.890625 "/></g></g></g><g fill="#0d005c" fill-opacity="1"><g transform="translate(109.973039, 260.089978)"><g><path d="M 27.109375 -111.515625 C 23.546875 -111.515625 20.53125 -112.78125 18.0625 -115.3125 C 15.601562 -117.84375 14.375 -120.820312 14.375 -124.25 C 14.375 -127.800781 15.601562 -130.84375 18.0625 -133.375 C 20.53125 -135.914062 23.546875 -137.1875 27.109375 -137.1875 C 30.671875 -137.1875 33.71875 -135.914062 36.25 -133.375 C 38.78125 -130.84375 40.046875 -127.800781 40.046875 -124.25 C 40.046875 -120.820312 38.742188 -117.84375 36.140625 -115.3125 C 33.535156 -112.78125 30.523438 -111.515625 27.109375 -111.515625 Z M 36.96875 0 L 16.640625 0 L 16.640625 -98.578125 L 36.96875 -98.578125 Z M 36.96875 0 "/></g></g></g><g fill="#0d005c" fill-opacity="1"><g transform="translate(163.981726, 260.089978)"><g><path d="M 35.734375 -79.890625 C 38.878906 -85.773438 43.289062 -90.492188 48.96875 -94.046875 C 54.65625 -97.609375 61.46875 -99.390625 69.40625 -99.390625 L 69.40625 -84.203125 C 48.320312 -84.203125 37.78125 -75.984375 37.78125 -59.546875 L 37.578125 -59.546875 L 37.578125 0 L 16.84375 0 L 16.84375 -98.578125 L 25.875 -98.578125 Z M 35.734375 -79.890625 "/></g></g></g><g fill="#0d005c" fill-opacity="1"><g transform="translate(233.802836, 260.089978)"><g><path d="M 36.765625 2.46875 C 28.410156 2.46875 21.800781 0.175781 16.9375 -4.40625 C 12.082031 -9 9.65625 -15.265625 9.65625 -23.203125 C 9.65625 -31.691406 12.695312 -38.363281 18.78125 -43.21875 C 24.875 -48.082031 34.148438 -51.609375 46.609375 -53.796875 L 69.40625 -57.5 L 69.40625 -67.5625 C 69.40625 -83.03125 63.519531 -90.765625 51.75 -90.765625 C 44.769531 -90.765625 39.703125 -88.78125 36.546875 -84.8125 C 33.398438 -80.84375 31.625 -74.75 31.21875 -66.53125 L 13.96875 -68.390625 C 14.789062 -79.203125 18.078125 -87.34375 23.828125 -92.8125 C 29.578125 -98.289062 39.019531 -101.03125 52.15625 -101.03125 C 64.894531 -101.03125 74.410156 -98.1875 80.703125 -92.5 C 87.003906 -86.820312 90.15625 -78.234375 90.15625 -66.734375 L 90.15625 0 L 77.015625 0 L 70.640625 -14.375 C 66.398438 -8.894531 61.332031 -4.71875 55.4375 -1.84375 C 49.550781 1.03125 43.328125 2.46875 36.765625 2.46875 Z M 44.15625 -8.421875 C 48.8125 -8.421875 53.429688 -9.789062 58.015625 -12.53125 C 62.597656 -15.269531 66.394531 -18.484375 69.40625 -22.171875 L 69.40625 -49.078125 L 49.28125 -45.171875 C 42.4375 -43.671875 37.269531 -41.273438 33.78125 -37.984375 C 30.289062 -34.703125 28.546875 -30.253906 28.546875 -24.640625 C 28.546875 -19.710938 29.945312 -15.773438 32.75 -12.828125 C 35.5625 -9.890625 39.363281 -8.421875 44.15625 -8.421875 Z M 44.15625 -8.421875 "/></g></g></g><g fill="#0d005c" fill-opacity="1"><g transform="translate(338.73989, 260.089978)"><g><path d="M 37.578125 0 L 16.84375 0 L 16.84375 -130.203125 L 37.578125 -132.875 Z M 37.578125 0 "/></g></g></g></g></g><g transform="matrix(1, 0, 0, 1, 543, 663)"><g clip-path="url(#0b13608b4c)"><g fill="#ff751f" fill-opacity="1"><g transform="translate(9.398719, 188.631093)"><g><path d="M 54.65625 -42.75 C 54.65625 -34.882812 53.9375 -28.875 52.5 -24.71875 C 51.0625 -20.5625 48.90625 -18.484375 46.03125 -18.484375 C 43.539062 -18.484375 40.613281 -19.367188 37.25 -21.140625 C 33.882812 -22.921875 30.441406 -25.285156 26.921875 -28.234375 C 23.410156 -31.179688 20.144531 -34.375 17.125 -37.8125 C 14.101562 -41.257812 11.664062 -44.679688 9.8125 -48.078125 C 7.957031 -51.484375 7.03125 -54.546875 7.03125 -57.265625 C 7.03125 -61.492188 13.566406 -63.609375 26.640625 -63.609375 L 27.78125 -63.609375 L 27.78125 -115.546875 L 0 -115.546875 C -0.675781 -115.546875 -1.222656 -115.640625 -1.640625 -115.828125 C -2.054688 -116.023438 -2.378906 -116.425781 -2.609375 -117.03125 C -4.117188 -121.632812 -5.210938 -125.070312 -5.890625 -127.34375 C -6.578125 -129.613281 -7.015625 -131.144531 -7.203125 -131.9375 C -7.390625 -132.726562 -7.484375 -133.238281 -7.484375 -133.46875 C -7.484375 -134.21875 -7.066406 -134.59375 -6.234375 -134.59375 L 142.078125 -134.59375 C 142.679688 -134.59375 143.132812 -134.421875 143.4375 -134.078125 C 143.75 -133.742188 143.976562 -133.3125 144.125 -132.78125 C 145.40625 -128.320312 146.328125 -124.992188 146.890625 -122.796875 C 147.460938 -120.609375 147.84375 -119.132812 148.03125 -118.375 C 148.226562 -117.625 148.328125 -117.097656 148.328125 -116.796875 C 148.328125 -115.960938 147.71875 -115.546875 146.5 -115.546875 L 124.96875 -115.546875 L 124.96875 8.5 C 124.96875 9.789062 124.472656 10.4375 123.484375 10.4375 C 123.109375 10.4375 122.257812 10.320312 120.9375 10.09375 C 119.613281 9.863281 117.363281 9.351562 114.1875 8.5625 C 111.007812 7.769531 106.359375 6.617188 100.234375 5.109375 C 99.023438 4.722656 98.421875 3.851562 98.421875 2.5 L 98.421875 -42.75 Z M 54.65625 -63.390625 L 98.421875 -63.390625 L 98.421875 -115.546875 L 54.65625 -115.546875 Z M 54.65625 -63.390625 "/></g></g></g><g fill="#ff751f" fill-opacity="1"><g transform="translate(92.1764, 188.631093)"><g><path d="M 28.921875 -149.90625 C 27.710938 -149.90625 26.085938 -150.566406 24.046875 -151.890625 C 22.003906 -153.210938 19.960938 -154.859375 17.921875 -156.828125 C 15.878906 -158.796875 14.15625 -160.816406 12.75 -162.890625 C 11.351562 -164.972656 10.65625 -166.769531 10.65625 -168.28125 C 10.65625 -169.644531 11.332031 -171.34375 12.6875 -173.375 C 14.050781 -175.414062 15.734375 -177.4375 17.734375 -179.4375 C 19.742188 -181.445312 21.769531 -183.128906 23.8125 -184.484375 C 25.851562 -185.847656 27.554688 -186.53125 28.921875 -186.53125 C 30.359375 -186.53125 32.09375 -185.832031 34.125 -184.4375 C 36.164062 -183.039062 38.1875 -181.320312 40.1875 -179.28125 C 42.195312 -177.238281 43.878906 -175.210938 45.234375 -173.203125 C 46.597656 -171.203125 47.28125 -169.5625 47.28125 -168.28125 C 47.28125 -166.769531 46.5625 -164.972656 45.125 -162.890625 C 43.695312 -160.816406 41.941406 -158.796875 39.859375 -156.828125 C 37.773438 -154.859375 35.734375 -153.210938 33.734375 -151.890625 C 31.734375 -150.566406 30.128906 -149.90625 28.921875 -149.90625 Z M 28.921875 -149.90625 "/></g></g></g><g fill="#ff751f" fill-opacity="1"><g transform="translate(151.478423, 188.631093)"><g><path d="M -1.140625 -115.546875 C -1.742188 -115.546875 -2.269531 -115.640625 -2.71875 -115.828125 C -3.175781 -116.023438 -3.515625 -116.425781 -3.734375 -117.03125 C -5.253906 -121.71875 -6.351562 -125.191406 -7.03125 -127.453125 C -7.707031 -129.722656 -8.140625 -131.234375 -8.328125 -131.984375 C -8.523438 -132.742188 -8.625 -133.238281 -8.625 -133.46875 C -8.625 -134.21875 -8.207031 -134.59375 -7.375 -134.59375 L 136.1875 -134.59375 C 136.789062 -134.59375 137.242188 -134.421875 137.546875 -134.078125 C 137.847656 -133.742188 138.078125 -133.3125 138.234375 -132.78125 C 139.515625 -128.320312 140.4375 -124.992188 141 -122.796875 C 141.570312 -120.609375 141.953125 -119.132812 142.140625 -118.375 C 142.328125 -117.625 142.421875 -117.097656 142.421875 -116.796875 C 142.421875 -115.960938 141.816406 -115.546875 140.609375 -115.546875 L 119.0625 -115.546875 L 119.0625 8.5 C 119.0625 9.789062 118.570312 10.4375 117.59375 10.4375 C 117.21875 10.4375 116.367188 10.320312 115.046875 10.09375 C 113.722656 9.863281 111.472656 9.351562 108.296875 8.5625 C 105.117188 7.769531 100.46875 6.617188 94.34375 5.109375 C 93.132812 4.722656 92.53125 3.851562 92.53125 2.5 L 92.53125 -42.296875 L 32.546875 8.625 C 31.710938 9.375 30.804688 9.75 29.828125 9.75 C 28.535156 9.75 27.550781 9.296875 26.875 8.390625 L 13.046875 -10.546875 C 11.828125 -12.210938 11.9375 -13.535156 13.375 -14.515625 L 73.703125 -52.390625 C 69.921875 -57.003906 66.6875 -60.785156 64 -63.734375 C 61.320312 -66.679688 58.71875 -68.867188 56.1875 -70.296875 C 53.65625 -71.734375 50.726562 -72.453125 47.40625 -72.453125 C 44.070312 -72.453125 40.742188 -71.753906 37.421875 -70.359375 C 34.097656 -68.960938 30.351562 -66.375 26.1875 -62.59375 C 25.664062 -62.132812 25.15625 -61.828125 24.65625 -61.671875 C 24.164062 -61.523438 23.65625 -61.453125 23.125 -61.453125 C 22.070312 -61.453125 21.164062 -61.867188 20.40625 -62.703125 L 7.828125 -79.484375 C 7.222656 -80.316406 6.921875 -81.148438 6.921875 -81.984375 C 6.921875 -82.960938 7.335938 -83.796875 8.171875 -84.484375 C 18.296875 -93.097656 28.988281 -97.40625 40.25 -97.40625 C 46.90625 -97.40625 53.367188 -95.738281 59.640625 -92.40625 C 65.921875 -89.082031 72.007812 -83.90625 77.90625 -76.875 L 89.703125 -62.375 L 92.53125 -64.0625 L 92.53125 -115.546875 Z M -1.140625 -115.546875 "/></g></g></g></g></g><g transform="matrix(1, 0, 0, 1, 845, 566)"><g clip-path="url(#ead45edea5)"><g fill="#0d005c" fill-opacity="1"><g transform="translate(1.043041, 301.18667)"><g><path d="M 97.1875 0 L 58.125 -60.734375 L 17.859375 0 L 3.09375 0 L 51.453125 -70.984375 L 3.09375 -146.015625 L 30.96875 -146.015625 L 67.65625 -88.84375 L 107.1875 -146.015625 L 121.953125 -146.015625 L 74.796875 -77.890625 L 125.0625 0 Z M 97.1875 0 "/></g></g></g></g></g><g transform="matrix(1, 0, 0, 1, 776, 668)"><g clip-path="url(#6b2ba8db14)"><g fill="#ff751f" fill-opacity="1"><g transform="translate(1.814042, 235.106065)"><g><path d="M 23.5625 1.328125 C 19.707031 1.328125 16.445312 -0.00390625 13.78125 -2.671875 C 11.113281 -5.335938 9.78125 -8.59375 9.78125 -12.4375 C 9.78125 -16.289062 11.113281 -19.550781 13.78125 -22.21875 C 16.445312 -24.882812 19.707031 -26.21875 23.5625 -26.21875 C 27.257812 -26.21875 30.40625 -24.882812 33 -22.21875 C 35.59375 -19.550781 36.890625 -16.289062 36.890625 -12.4375 C 36.890625 -8.59375 35.59375 -5.335938 33 -2.671875 C 30.40625 -0.00390625 27.257812 1.328125 23.5625 1.328125 Z M 23.5625 1.328125 "/></g></g></g></g></g><g transform="matrix(1, 0, 0, 1, 636, 285)"><g clip-path="url(#ee3e29cbd3)"><g fill="#ffffff" fill-opacity="1"><g transform="translate(1.556556, 258.607062)"><g><path d="M 25.890625 1.46875 C 21.648438 1.46875 18.066406 0.00390625 15.140625 -2.921875 C 12.210938 -5.859375 10.75 -9.441406 10.75 -13.671875 C 10.75 -17.910156 12.210938 -21.492188 15.140625 -24.421875 C 18.066406 -27.347656 21.648438 -28.8125 25.890625 -28.8125 C 29.953125 -28.8125 33.40625 -27.347656 36.25 -24.421875 C 39.101562 -21.492188 40.53125 -17.910156 40.53125 -13.671875 C 40.53125 -9.441406 39.101562 -5.859375 36.25 -2.921875 C 33.40625 0.00390625 29.953125 1.46875 25.890625 1.46875 Z M 25.890625 1.46875 "/></g></g></g></g></g><g transform="matrix(1, 0, 0, 1, 679, 709)"><g clip-path="url(#cbcdc37939)"><g fill="#ff751f" fill-opacity="1"><g transform="translate(147.150956, 36.769805)"><g><path d="M -101.21875 -27.90625 L 4.296875 -27.90625 L 0.140625 -9.34375 L -105.375 -9.34375 Z M -101.21875 -27.90625 "/></g></g></g></g></g></svg>